<mxfile host="65bd71144e">
    <diagram name="Distribution/Notification Flow" id="Bv8wNoRmV69SUSG4sx8j">
        <mxGraphModel dx="3480" dy="1667" grid="1" gridSize="10" guides="1" tooltips="1" connect="1" arrows="1" fold="1" page="0" pageScale="1" pageWidth="850" pageHeight="1100" math="0" shadow="0">
            <root>
                <mxCell id="0"/>
                <mxCell id="1" parent="0"/>
                <mxCell id="cjWft2asF4GY3yw1s2Yd-2" value="&lt;font data-font-src=&quot;https://fonts.googleapis.com/css?family=Fredericka+the+Great&quot; face=&quot;Fredericka the Great&quot;&gt;Exchange&lt;/font&gt;" style="triangle;whiteSpace=wrap;html=1;direction=west;align=right;sketch=1;curveFitting=1;jiggle=2;" parent="1" vertex="1">
                    <mxGeometry x="320" y="360" width="80" height="80" as="geometry"/>
                </mxCell>
                <mxCell id="cjWft2asF4GY3yw1s2Yd-3" value="&lt;font data-font-src=&quot;https://fonts.googleapis.com/css?family=Fredericka+the+Great&quot; face=&quot;Fredericka the Great&quot;&gt;Queue&lt;/font&gt;" style="shape=cylinder3;whiteSpace=wrap;html=1;boundedLbl=1;backgroundOutline=1;size=15;direction=south;sketch=1;curveFitting=1;jiggle=2;" parent="1" vertex="1">
                    <mxGeometry x="560" y="340" width="120" height="40" as="geometry"/>
                </mxCell>
                <mxCell id="cjWft2asF4GY3yw1s2Yd-4" value="&lt;font data-font-src=&quot;https://fonts.googleapis.com/css?family=Fredericka+the+Great&quot; face=&quot;Fredericka the Great&quot;&gt;Queue&lt;/font&gt;" style="shape=cylinder3;whiteSpace=wrap;html=1;boundedLbl=1;backgroundOutline=1;size=15;direction=south;sketch=1;curveFitting=1;jiggle=2;" parent="1" vertex="1">
                    <mxGeometry x="560" y="420" width="120" height="40" as="geometry"/>
                </mxCell>
                <mxCell id="cjWft2asF4GY3yw1s2Yd-9" value="&lt;font data-font-src=&quot;https://fonts.googleapis.com/css?family=Fredericka+the+Great&quot; face=&quot;Fredericka the Great&quot;&gt;Microservice #1&lt;/font&gt;" style="rounded=0;whiteSpace=wrap;html=1;fillColor=#1ba1e2;strokeColor=#006EAF;fontColor=#ffffff;sketch=1;curveFitting=1;jiggle=2;" parent="1" vertex="1">
                    <mxGeometry x="40" y="370" width="120" height="60" as="geometry"/>
                </mxCell>
                <mxCell id="cjWft2asF4GY3yw1s2Yd-10" value="Exchange" style="triangle;whiteSpace=wrap;html=1;direction=west;align=right;sketch=1;curveFitting=1;jiggle=2;" parent="1" vertex="1">
                    <mxGeometry x="320" y="720" width="80" height="80" as="geometry"/>
                </mxCell>
                <mxCell id="cjWft2asF4GY3yw1s2Yd-11" value="&lt;font data-font-src=&quot;https://fonts.googleapis.com/css?family=Fredericka+the+Great&quot; face=&quot;Fredericka the Great&quot;&gt;Microservice #2&lt;/font&gt;" style="rounded=0;whiteSpace=wrap;html=1;fillColor=#1ba1e2;strokeColor=#006EAF;fontColor=#ffffff;sketch=1;curveFitting=1;jiggle=2;" parent="1" vertex="1">
                    <mxGeometry x="40" y="730" width="120" height="60" as="geometry"/>
                </mxCell>
                <mxCell id="cjWft2asF4GY3yw1s2Yd-12" value="&lt;font data-font-src=&quot;https://fonts.googleapis.com/css?family=Fredericka+the+Great&quot; face=&quot;Fredericka the Great&quot;&gt;Distribution Queue&lt;/font&gt;" style="shape=cylinder3;whiteSpace=wrap;html=1;boundedLbl=1;backgroundOutline=1;size=15;direction=south;sketch=1;curveFitting=1;jiggle=2;" parent="1" vertex="1">
                    <mxGeometry x="560" y="560" width="120" height="40" as="geometry"/>
                </mxCell>
                <mxCell id="cjWft2asF4GY3yw1s2Yd-14" value="&lt;font data-font-src=&quot;https://fonts.googleapis.com/css?family=Fredericka+the+Great&quot; face=&quot;Fredericka the Great&quot;&gt;Queue&lt;/font&gt;" style="shape=cylinder3;whiteSpace=wrap;html=1;boundedLbl=1;backgroundOutline=1;size=15;direction=south;sketch=1;curveFitting=1;jiggle=2;" parent="1" vertex="1">
                    <mxGeometry x="560" y="700" width="120" height="40" as="geometry"/>
                </mxCell>
                <mxCell id="cjWft2asF4GY3yw1s2Yd-15" value="&lt;font data-font-src=&quot;https://fonts.googleapis.com/css?family=Fredericka+the+Great&quot; face=&quot;Fredericka the Great&quot;&gt;Queue&lt;/font&gt;" style="shape=cylinder3;whiteSpace=wrap;html=1;boundedLbl=1;backgroundOutline=1;size=15;direction=south;sketch=1;curveFitting=1;jiggle=2;" parent="1" vertex="1">
                    <mxGeometry x="560" y="780" width="120" height="40" as="geometry"/>
                </mxCell>
                <mxCell id="cjWft2asF4GY3yw1s2Yd-16" value="" style="endArrow=classic;html=1;rounded=0;exitX=1;exitY=0.5;exitDx=0;exitDy=0;entryX=1;entryY=0.5;entryDx=0;entryDy=0;sketch=1;curveFitting=1;jiggle=2;" parent="1" source="cjWft2asF4GY3yw1s2Yd-11" target="cjWft2asF4GY3yw1s2Yd-10" edge="1">
                    <mxGeometry relative="1" as="geometry">
                        <mxPoint x="280" y="640" as="sourcePoint"/>
                        <mxPoint x="380" y="640" as="targetPoint"/>
                    </mxGeometry>
                </mxCell>
                <mxCell id="cjWft2asF4GY3yw1s2Yd-17" value="&lt;font data-font-src=&quot;https://fonts.googleapis.com/css?family=Fredericka+the+Great&quot; face=&quot;Fredericka the Great&quot;&gt;1) Microservice publishes&lt;br&gt;a message to RabbitMQ.&lt;/font&gt;" style="edgeLabel;resizable=0;html=1;align=center;verticalAlign=middle;" parent="cjWft2asF4GY3yw1s2Yd-16" connectable="0" vertex="1">
                    <mxGeometry relative="1" as="geometry"/>
                </mxCell>
                <mxCell id="cjWft2asF4GY3yw1s2Yd-18" value="" style="endArrow=classic;html=1;rounded=0;exitX=1;exitY=0.5;exitDx=0;exitDy=0;entryX=1;entryY=0.5;entryDx=0;entryDy=0;sketch=1;curveFitting=1;jiggle=2;" parent="1" source="cjWft2asF4GY3yw1s2Yd-9" target="cjWft2asF4GY3yw1s2Yd-2" edge="1">
                    <mxGeometry relative="1" as="geometry">
                        <mxPoint x="170" y="399.5" as="sourcePoint"/>
                        <mxPoint x="270" y="399.5" as="targetPoint"/>
                    </mxGeometry>
                </mxCell>
                <mxCell id="cjWft2asF4GY3yw1s2Yd-19" value="&lt;font data-font-src=&quot;https://fonts.googleapis.com/css?family=Fredericka+the+Great&quot; face=&quot;Fredericka the Great&quot;&gt;1) Microservice publishes&lt;br&gt;a message to RabbitMQ.&lt;/font&gt;" style="edgeLabel;resizable=0;html=1;align=center;verticalAlign=middle;" parent="cjWft2asF4GY3yw1s2Yd-18" connectable="0" vertex="1">
                    <mxGeometry relative="1" as="geometry"/>
                </mxCell>
                <mxCell id="cjWft2asF4GY3yw1s2Yd-20" value="" style="endArrow=classic;html=1;rounded=0;exitX=0;exitY=0.5;exitDx=0;exitDy=0;entryX=0.5;entryY=1;entryDx=0;entryDy=0;entryPerimeter=0;sketch=1;curveFitting=1;jiggle=2;" parent="1" source="cjWft2asF4GY3yw1s2Yd-10" target="cjWft2asF4GY3yw1s2Yd-12" edge="1">
                    <mxGeometry relative="1" as="geometry">
                        <mxPoint x="500" y="550" as="sourcePoint"/>
                        <mxPoint x="600" y="550" as="targetPoint"/>
                    </mxGeometry>
                </mxCell>
                <mxCell id="cjWft2asF4GY3yw1s2Yd-21" value="&lt;font data-font-src=&quot;https://fonts.googleapis.com/css?family=Fredericka+the+Great&quot; face=&quot;Fredericka the Great&quot;&gt;2) Exchange receives message&lt;br&gt;and routes it 0 or more queues.&lt;/font&gt;" style="edgeLabel;resizable=0;html=1;align=center;verticalAlign=middle;" parent="cjWft2asF4GY3yw1s2Yd-20" connectable="0" vertex="1">
                    <mxGeometry relative="1" as="geometry"/>
                </mxCell>
                <mxCell id="cjWft2asF4GY3yw1s2Yd-24" value="" style="endArrow=classic;html=1;rounded=0;exitX=0;exitY=0.5;exitDx=0;exitDy=0;entryX=0.7;entryY=1;entryDx=0;entryDy=0;entryPerimeter=0;sketch=1;curveFitting=1;jiggle=2;" parent="1" source="cjWft2asF4GY3yw1s2Yd-2" target="cjWft2asF4GY3yw1s2Yd-12" edge="1">
                    <mxGeometry relative="1" as="geometry">
                        <mxPoint x="425" y="460" as="sourcePoint"/>
                        <mxPoint x="525" y="460" as="targetPoint"/>
                    </mxGeometry>
                </mxCell>
                <mxCell id="cjWft2asF4GY3yw1s2Yd-25" value="&lt;font data-font-src=&quot;https://fonts.googleapis.com/css?family=Fredericka+the+Great&quot; face=&quot;Fredericka the Great&quot;&gt;2) Exchange receives message&lt;br&gt;and routes it to 0 or more queues.&lt;/font&gt;" style="edgeLabel;resizable=0;html=1;align=center;verticalAlign=middle;" parent="cjWft2asF4GY3yw1s2Yd-24" connectable="0" vertex="1">
                    <mxGeometry relative="1" as="geometry"/>
                </mxCell>
                <mxCell id="cjWft2asF4GY3yw1s2Yd-27" value="" style="endArrow=classic;html=1;rounded=0;exitX=0;exitY=0.5;exitDx=0;exitDy=0;entryX=0.5;entryY=1;entryDx=0;entryDy=0;entryPerimeter=0;sketch=1;curveFitting=1;jiggle=2;" parent="1" source="cjWft2asF4GY3yw1s2Yd-2" target="cjWft2asF4GY3yw1s2Yd-3" edge="1">
                    <mxGeometry width="50" height="50" relative="1" as="geometry">
                        <mxPoint x="410" y="400" as="sourcePoint"/>
                        <mxPoint x="460" y="350" as="targetPoint"/>
                    </mxGeometry>
                </mxCell>
                <mxCell id="cjWft2asF4GY3yw1s2Yd-28" value="" style="endArrow=classic;html=1;rounded=0;exitX=0;exitY=0.5;exitDx=0;exitDy=0;entryX=0.5;entryY=1;entryDx=0;entryDy=0;entryPerimeter=0;sketch=1;curveFitting=1;jiggle=2;" parent="1" source="cjWft2asF4GY3yw1s2Yd-2" target="cjWft2asF4GY3yw1s2Yd-4" edge="1">
                    <mxGeometry width="50" height="50" relative="1" as="geometry">
                        <mxPoint x="460" y="440" as="sourcePoint"/>
                        <mxPoint x="510" y="390" as="targetPoint"/>
                    </mxGeometry>
                </mxCell>
                <mxCell id="cjWft2asF4GY3yw1s2Yd-51" value="" style="edgeStyle=orthogonalEdgeStyle;rounded=0;orthogonalLoop=1;jettySize=auto;html=1;sketch=1;curveFitting=1;jiggle=2;" parent="1" source="cjWft2asF4GY3yw1s2Yd-29" target="cjWft2asF4GY3yw1s2Yd-50" edge="1">
                    <mxGeometry relative="1" as="geometry"/>
                </mxCell>
                <mxCell id="cjWft2asF4GY3yw1s2Yd-29" value="&lt;font data-font-src=&quot;https://fonts.googleapis.com/css?family=Fredericka+the+Great&quot; face=&quot;Fredericka the Great&quot;&gt;Distribution Service&lt;/font&gt;" style="rounded=0;whiteSpace=wrap;html=1;fillColor=#1ba1e2;strokeColor=#006EAF;fontColor=#ffffff;sketch=1;curveFitting=1;jiggle=2;" parent="1" vertex="1">
                    <mxGeometry x="840" y="550" width="120" height="60" as="geometry"/>
                </mxCell>
                <mxCell id="cjWft2asF4GY3yw1s2Yd-30" value="" style="endArrow=classic;html=1;rounded=0;exitX=0.5;exitY=0;exitDx=0;exitDy=0;exitPerimeter=0;entryX=0;entryY=0.5;entryDx=0;entryDy=0;sketch=1;curveFitting=1;jiggle=2;" parent="1" source="cjWft2asF4GY3yw1s2Yd-12" target="cjWft2asF4GY3yw1s2Yd-29" edge="1">
                    <mxGeometry relative="1" as="geometry">
                        <mxPoint x="700" y="579.5" as="sourcePoint"/>
                        <mxPoint x="800" y="579.5" as="targetPoint"/>
                    </mxGeometry>
                </mxCell>
                <mxCell id="cjWft2asF4GY3yw1s2Yd-31" value="&lt;font data-font-src=&quot;https://fonts.googleapis.com/css?family=Fredericka+the+Great&quot; face=&quot;Fredericka the Great&quot;&gt;3) The Distribution Service&lt;br&gt;reads the message from&lt;br&gt;the queue.&lt;/font&gt;" style="edgeLabel;resizable=0;html=1;align=center;verticalAlign=middle;" parent="cjWft2asF4GY3yw1s2Yd-30" connectable="0" vertex="1">
                    <mxGeometry relative="1" as="geometry"/>
                </mxCell>
                <mxCell id="cjWft2asF4GY3yw1s2Yd-53" style="edgeStyle=orthogonalEdgeStyle;rounded=0;orthogonalLoop=1;jettySize=auto;html=1;exitX=0.5;exitY=0;exitDx=0;exitDy=0;entryX=0;entryY=0.5;entryDx=0;entryDy=0;sketch=1;curveFitting=1;jiggle=2;" parent="1" source="cjWft2asF4GY3yw1s2Yd-32" target="cjWft2asF4GY3yw1s2Yd-41" edge="1">
                    <mxGeometry relative="1" as="geometry">
                        <Array as="points">
                            <mxPoint x="1380" y="440"/>
                            <mxPoint x="1480" y="440"/>
                            <mxPoint x="1480" y="580"/>
                        </Array>
                    </mxGeometry>
                </mxCell>
                <mxCell id="cjWft2asF4GY3yw1s2Yd-56" value="&lt;font data-font-src=&quot;https://fonts.googleapis.com/css?family=Fredericka+the+Great&quot; face=&quot;Fredericka the Great&quot;&gt;Yes? Select&lt;br&gt;distribution rule.&lt;/font&gt;" style="edgeLabel;html=1;align=center;verticalAlign=middle;resizable=0;points=[];" parent="cjWft2asF4GY3yw1s2Yd-53" vertex="1" connectable="0">
                    <mxGeometry x="-0.26" y="-1" relative="1" as="geometry">
                        <mxPoint x="-2" y="-1" as="offset"/>
                    </mxGeometry>
                </mxCell>
                <mxCell id="cjWft2asF4GY3yw1s2Yd-54" style="edgeStyle=orthogonalEdgeStyle;rounded=0;orthogonalLoop=1;jettySize=auto;html=1;entryX=0;entryY=0.5;entryDx=0;entryDy=0;sketch=1;curveFitting=1;jiggle=2;" parent="1" source="cjWft2asF4GY3yw1s2Yd-32" target="cjWft2asF4GY3yw1s2Yd-41" edge="1">
                    <mxGeometry relative="1" as="geometry">
                        <Array as="points">
                            <mxPoint x="1380" y="720"/>
                            <mxPoint x="1480" y="720"/>
                            <mxPoint x="1480" y="580"/>
                        </Array>
                    </mxGeometry>
                </mxCell>
                <mxCell id="cjWft2asF4GY3yw1s2Yd-55" value="&lt;font data-font-src=&quot;https://fonts.googleapis.com/css?family=Fredericka+the+Great&quot; face=&quot;Fredericka the Great&quot;&gt;No? Select default&lt;br&gt;distribution rule.&lt;/font&gt;" style="edgeLabel;html=1;align=center;verticalAlign=middle;resizable=0;points=[];" parent="cjWft2asF4GY3yw1s2Yd-54" vertex="1" connectable="0">
                    <mxGeometry x="-0.2153" y="-4" relative="1" as="geometry">
                        <mxPoint x="-10" y="-4" as="offset"/>
                    </mxGeometry>
                </mxCell>
                <mxCell id="cjWft2asF4GY3yw1s2Yd-32" value="&lt;font data-font-src=&quot;https://fonts.googleapis.com/css?family=Fredericka+the+Great&quot; face=&quot;Fredericka the Great&quot;&gt;5) Is there a rule with matching selectors in the metadata?&lt;/font&gt;" style="rhombus;whiteSpace=wrap;html=1;sketch=1;curveFitting=1;jiggle=2;" parent="1" vertex="1">
                    <mxGeometry x="1320" y="522.5" width="120" height="115" as="geometry"/>
                </mxCell>
                <mxCell id="cjWft2asF4GY3yw1s2Yd-58" style="edgeStyle=orthogonalEdgeStyle;rounded=0;orthogonalLoop=1;jettySize=auto;html=1;entryX=0;entryY=0.5;entryDx=0;entryDy=0;sketch=1;curveFitting=1;jiggle=2;" parent="1" source="cjWft2asF4GY3yw1s2Yd-41" target="cjWft2asF4GY3yw1s2Yd-57" edge="1">
                    <mxGeometry relative="1" as="geometry">
                        <Array as="points">
                            <mxPoint x="1580" y="800"/>
                        </Array>
                    </mxGeometry>
                </mxCell>
                <mxCell id="cjWft2asF4GY3yw1s2Yd-59" value="&lt;font data-font-src=&quot;https://fonts.googleapis.com/css?family=Fredericka+the+Great&quot; face=&quot;Fredericka the Great&quot;&gt;No&lt;/font&gt;" style="edgeLabel;html=1;align=center;verticalAlign=middle;resizable=0;points=[];" parent="cjWft2asF4GY3yw1s2Yd-58" vertex="1" connectable="0">
                    <mxGeometry x="-0.0987" relative="1" as="geometry">
                        <mxPoint y="-18" as="offset"/>
                    </mxGeometry>
                </mxCell>
                <mxCell id="cjWft2asF4GY3yw1s2Yd-41" value="&lt;font data-font-src=&quot;https://fonts.googleapis.com/css?family=Fredericka+the+Great&quot; face=&quot;Fredericka the Great&quot;&gt;&amp;nbsp;6) Bypass subscriptions?&lt;/font&gt;" style="rhombus;whiteSpace=wrap;html=1;sketch=1;curveFitting=1;jiggle=2;" parent="1" vertex="1">
                    <mxGeometry x="1520" y="522.5" width="120" height="115" as="geometry"/>
                </mxCell>
                <mxCell id="cjWft2asF4GY3yw1s2Yd-52" value="" style="edgeStyle=orthogonalEdgeStyle;rounded=0;orthogonalLoop=1;jettySize=auto;html=1;sketch=1;curveFitting=1;jiggle=2;" parent="1" source="cjWft2asF4GY3yw1s2Yd-50" target="cjWft2asF4GY3yw1s2Yd-32" edge="1">
                    <mxGeometry relative="1" as="geometry"/>
                </mxCell>
                <mxCell id="rAESAnFBt7cgcLHixQZ8-2" style="edgeStyle=orthogonalEdgeStyle;rounded=0;orthogonalLoop=1;jettySize=auto;html=1;exitX=0.5;exitY=1;exitDx=0;exitDy=0;entryX=0.5;entryY=0;entryDx=0;entryDy=0;startArrow=classic;startFill=1;sketch=1;curveFitting=1;jiggle=2;" parent="1" source="cjWft2asF4GY3yw1s2Yd-50" target="rAESAnFBt7cgcLHixQZ8-1" edge="1">
                    <mxGeometry relative="1" as="geometry"/>
                </mxCell>
                <mxCell id="rAESAnFBt7cgcLHixQZ8-3" value="&lt;font data-font-src=&quot;https://fonts.googleapis.com/css?family=Fredericka+the+Great&quot; face=&quot;Fredericka the Great&quot;&gt;TCP&lt;/font&gt;" style="edgeLabel;html=1;align=center;verticalAlign=middle;resizable=0;points=[];" parent="rAESAnFBt7cgcLHixQZ8-2" vertex="1" connectable="0">
                    <mxGeometry x="0.1264" y="2" relative="1" as="geometry">
                        <mxPoint as="offset"/>
                    </mxGeometry>
                </mxCell>
                <mxCell id="cjWft2asF4GY3yw1s2Yd-50" value="&lt;font data-font-src=&quot;https://fonts.googleapis.com/css?family=Fredericka+the+Great&quot; face=&quot;Fredericka the Great&quot;&gt;4) Service looks up the distribution event, rules, and subscriptions for the message.&lt;/font&gt;" style="shape=process;whiteSpace=wrap;html=1;backgroundOutline=1;sketch=1;curveFitting=1;jiggle=2;" parent="1" vertex="1">
                    <mxGeometry x="1040" y="540" width="200" height="80" as="geometry"/>
                </mxCell>
                <mxCell id="cjWft2asF4GY3yw1s2Yd-61" style="edgeStyle=orthogonalEdgeStyle;rounded=0;orthogonalLoop=1;jettySize=auto;html=1;startArrow=classic;startFill=1;" parent="1" source="cjWft2asF4GY3yw1s2Yd-57" target="cjWft2asF4GY3yw1s2Yd-60" edge="1">
                    <mxGeometry relative="1" as="geometry"/>
                </mxCell>
                <mxCell id="cjWft2asF4GY3yw1s2Yd-62" value="&lt;font data-font-src=&quot;https://fonts.googleapis.com/css?family=Fredericka+the+Great&quot; face=&quot;Fredericka the Great&quot;&gt;HTTP&lt;/font&gt;" style="edgeLabel;html=1;align=center;verticalAlign=middle;resizable=0;points=[];" parent="cjWft2asF4GY3yw1s2Yd-61" vertex="1" connectable="0">
                    <mxGeometry x="0.0521" relative="1" as="geometry">
                        <mxPoint x="-1" y="-1" as="offset"/>
                    </mxGeometry>
                </mxCell>
                <mxCell id="cjWft2asF4GY3yw1s2Yd-64" style="edgeStyle=orthogonalEdgeStyle;rounded=0;orthogonalLoop=1;jettySize=auto;html=1;entryX=0;entryY=0.5;entryDx=0;entryDy=0;sketch=1;curveFitting=1;jiggle=2;" parent="1" source="cjWft2asF4GY3yw1s2Yd-57" target="cjWft2asF4GY3yw1s2Yd-63" edge="1">
                    <mxGeometry relative="1" as="geometry"/>
                </mxCell>
                <mxCell id="cjWft2asF4GY3yw1s2Yd-57" value="&lt;font data-font-src=&quot;https://fonts.googleapis.com/css?family=Fredericka+the+Great&quot; face=&quot;Fredericka the Great&quot;&gt;Filter subscriptions and retrieve via request (if applicable)&lt;/font&gt;" style="shape=process;whiteSpace=wrap;html=1;backgroundOutline=1;strokeColor=default;sketch=1;curveFitting=1;jiggle=2;" parent="1" vertex="1">
                    <mxGeometry x="1600" y="760" width="200" height="80" as="geometry"/>
                </mxCell>
                <mxCell id="cjWft2asF4GY3yw1s2Yd-60" value="&lt;font data-font-src=&quot;https://fonts.googleapis.com/css?family=Fredericka+the+Great&quot; face=&quot;Fredericka the Great&quot;&gt;IAM Service&lt;/font&gt;" style="rounded=0;whiteSpace=wrap;html=1;fillColor=#1ba1e2;strokeColor=#006EAF;fontColor=#ffffff;sketch=1;curveFitting=1;jiggle=2;" parent="1" vertex="1">
                    <mxGeometry x="1640" y="960" width="120" height="60" as="geometry"/>
                </mxCell>
                <mxCell id="cjWft2asF4GY3yw1s2Yd-100" value="" style="edgeStyle=orthogonalEdgeStyle;rounded=0;orthogonalLoop=1;jettySize=auto;html=1;sketch=1;curveFitting=1;jiggle=2;" parent="1" source="cjWft2asF4GY3yw1s2Yd-63" target="cjWft2asF4GY3yw1s2Yd-99" edge="1">
                    <mxGeometry relative="1" as="geometry"/>
                </mxCell>
                <mxCell id="cjWft2asF4GY3yw1s2Yd-63" value="&lt;font data-font-src=&quot;https://fonts.googleapis.com/css?family=Fredericka+the+Great&quot; face=&quot;Fredericka the Great&quot;&gt;7) Convert each subscription into notification dto(s) based on the delivery methods and windows.&amp;nbsp;&lt;/font&gt;" style="shape=process;whiteSpace=wrap;html=1;backgroundOutline=1;sketch=1;curveFitting=1;jiggle=2;" parent="1" vertex="1">
                    <mxGeometry x="1840" y="540" width="200" height="80" as="geometry"/>
                </mxCell>
                <mxCell id="cjWft2asF4GY3yw1s2Yd-72" style="edgeStyle=orthogonalEdgeStyle;rounded=0;orthogonalLoop=1;jettySize=auto;html=1;entryX=0;entryY=0.5;entryDx=0;entryDy=0;sketch=1;curveFitting=1;jiggle=2;" parent="1" source="cjWft2asF4GY3yw1s2Yd-67" target="cjWft2asF4GY3yw1s2Yd-70" edge="1">
                    <mxGeometry relative="1" as="geometry"/>
                </mxCell>
                <mxCell id="cjWft2asF4GY3yw1s2Yd-73" value="&lt;font data-font-src=&quot;https://fonts.googleapis.com/css?family=Fredericka+the+Great&quot; face=&quot;Fredericka the Great&quot;&gt;10) The Notification Service&lt;br&gt;reads the job (message) &lt;br&gt;from BullMQ.&lt;/font&gt;" style="edgeLabel;html=1;align=center;verticalAlign=middle;resizable=0;points=[];" parent="cjWft2asF4GY3yw1s2Yd-72" vertex="1" connectable="0">
                    <mxGeometry x="-0.2051" y="-1" relative="1" as="geometry">
                        <mxPoint x="7" y="-1" as="offset"/>
                    </mxGeometry>
                </mxCell>
                <mxCell id="cjWft2asF4GY3yw1s2Yd-67" value="&lt;font data-font-src=&quot;https://fonts.googleapis.com/css?family=Fredericka+the+Great&quot; face=&quot;Fredericka the Great&quot;&gt;BullMQ (Redis Streams)&lt;/font&gt;" style="shape=cylinder3;whiteSpace=wrap;html=1;boundedLbl=1;backgroundOutline=1;size=15;direction=south;sketch=1;curveFitting=1;jiggle=2;" parent="1" vertex="1">
                    <mxGeometry x="2400" y="540" width="120" height="80" as="geometry"/>
                </mxCell>
                <mxCell id="cjWft2asF4GY3yw1s2Yd-75" style="edgeStyle=orthogonalEdgeStyle;rounded=0;orthogonalLoop=1;jettySize=auto;html=1;exitX=1;exitY=0.5;exitDx=0;exitDy=0;entryX=0;entryY=0.5;entryDx=0;entryDy=0;sketch=1;curveFitting=1;jiggle=2;" parent="1" source="cjWft2asF4GY3yw1s2Yd-70" target="cjWft2asF4GY3yw1s2Yd-74" edge="1">
                    <mxGeometry relative="1" as="geometry"/>
                </mxCell>
                <mxCell id="cjWft2asF4GY3yw1s2Yd-70" value="&lt;font data-font-src=&quot;https://fonts.googleapis.com/css?family=Fredericka+the+Great&quot; face=&quot;Fredericka the Great&quot;&gt;Notification Service&lt;/font&gt;" style="rounded=0;whiteSpace=wrap;html=1;fillColor=#1ba1e2;strokeColor=#006EAF;fontColor=#ffffff;sketch=1;curveFitting=1;jiggle=2;" parent="1" vertex="1">
                    <mxGeometry x="2680" y="550" width="120" height="60" as="geometry"/>
                </mxCell>
                <mxCell id="cjWft2asF4GY3yw1s2Yd-80" style="edgeStyle=orthogonalEdgeStyle;rounded=0;orthogonalLoop=1;jettySize=auto;html=1;exitX=0.5;exitY=0;exitDx=0;exitDy=0;startArrow=classic;startFill=1;sketch=1;curveFitting=1;jiggle=2;" parent="1" source="cjWft2asF4GY3yw1s2Yd-74" target="cjWft2asF4GY3yw1s2Yd-77" edge="1">
                    <mxGeometry relative="1" as="geometry"/>
                </mxCell>
                <mxCell id="cjWft2asF4GY3yw1s2Yd-81" value="&lt;font data-font-src=&quot;https://fonts.googleapis.com/css?family=Fredericka+the+Great&quot; face=&quot;Fredericka the Great&quot;&gt;SMTP&lt;/font&gt;" style="edgeLabel;html=1;align=center;verticalAlign=middle;resizable=0;points=[];" parent="cjWft2asF4GY3yw1s2Yd-80" vertex="1" connectable="0">
                    <mxGeometry x="-0.0338" y="5" relative="1" as="geometry">
                        <mxPoint as="offset"/>
                    </mxGeometry>
                </mxCell>
                <mxCell id="cjWft2asF4GY3yw1s2Yd-82" style="edgeStyle=orthogonalEdgeStyle;rounded=0;orthogonalLoop=1;jettySize=auto;html=1;exitX=0.5;exitY=0;exitDx=0;exitDy=0;entryX=0.5;entryY=1;entryDx=0;entryDy=0;sketch=1;curveFitting=1;jiggle=2;" parent="1" source="cjWft2asF4GY3yw1s2Yd-74" target="cjWft2asF4GY3yw1s2Yd-78" edge="1">
                    <mxGeometry relative="1" as="geometry"/>
                </mxCell>
                <mxCell id="cjWft2asF4GY3yw1s2Yd-83" value="&lt;font data-font-src=&quot;https://fonts.googleapis.com/css?family=Fredericka+the+Great&quot; face=&quot;Fredericka the Great&quot;&gt;HTTP&lt;/font&gt;" style="edgeLabel;html=1;align=center;verticalAlign=middle;resizable=0;points=[];" parent="cjWft2asF4GY3yw1s2Yd-82" vertex="1" connectable="0">
                    <mxGeometry x="0.1623" y="-1" relative="1" as="geometry">
                        <mxPoint x="-1" y="-19" as="offset"/>
                    </mxGeometry>
                </mxCell>
                <mxCell id="cjWft2asF4GY3yw1s2Yd-84" style="edgeStyle=orthogonalEdgeStyle;rounded=0;orthogonalLoop=1;jettySize=auto;html=1;exitX=0.5;exitY=0;exitDx=0;exitDy=0;entryX=0.5;entryY=1;entryDx=0;entryDy=0;sketch=1;curveFitting=1;jiggle=2;" parent="1" source="cjWft2asF4GY3yw1s2Yd-74" target="cjWft2asF4GY3yw1s2Yd-79" edge="1">
                    <mxGeometry relative="1" as="geometry"/>
                </mxCell>
                <mxCell id="cjWft2asF4GY3yw1s2Yd-85" value="&lt;font data-font-src=&quot;https://fonts.googleapis.com/css?family=Fredericka+the+Great&quot; face=&quot;Fredericka the Great&quot;&gt;Web Push Protocol&lt;/font&gt;" style="edgeLabel;html=1;align=center;verticalAlign=middle;resizable=0;points=[];" parent="cjWft2asF4GY3yw1s2Yd-84" vertex="1" connectable="0">
                    <mxGeometry x="-0.0045" y="-1" relative="1" as="geometry">
                        <mxPoint as="offset"/>
                    </mxGeometry>
                </mxCell>
                <mxCell id="cjWft2asF4GY3yw1s2Yd-87" style="edgeStyle=orthogonalEdgeStyle;rounded=0;orthogonalLoop=1;jettySize=auto;html=1;entryX=0;entryY=0.5;entryDx=0;entryDy=0;sketch=1;curveFitting=1;jiggle=2;" parent="1" source="cjWft2asF4GY3yw1s2Yd-74" target="cjWft2asF4GY3yw1s2Yd-86" edge="1">
                    <mxGeometry relative="1" as="geometry"/>
                </mxCell>
                <mxCell id="rAESAnFBt7cgcLHixQZ8-5" value="" style="edgeStyle=orthogonalEdgeStyle;rounded=0;orthogonalLoop=1;jettySize=auto;html=1;startArrow=classic;startFill=1;sketch=1;curveFitting=1;jiggle=2;" parent="1" source="cjWft2asF4GY3yw1s2Yd-74" target="rAESAnFBt7cgcLHixQZ8-4" edge="1">
                    <mxGeometry relative="1" as="geometry"/>
                </mxCell>
                <mxCell id="rAESAnFBt7cgcLHixQZ8-6" value="&lt;font data-font-src=&quot;https://fonts.googleapis.com/css?family=Fredericka+the+Great&quot; face=&quot;Fredericka the Great&quot;&gt;TCP&lt;/font&gt;" style="edgeLabel;html=1;align=center;verticalAlign=middle;resizable=0;points=[];" parent="rAESAnFBt7cgcLHixQZ8-5" vertex="1" connectable="0">
                    <mxGeometry x="0.0615" relative="1" as="geometry">
                        <mxPoint as="offset"/>
                    </mxGeometry>
                </mxCell>
                <mxCell id="cjWft2asF4GY3yw1s2Yd-74" value="&lt;font data-font-src=&quot;https://fonts.googleapis.com/css?family=Fredericka+the+Great&quot; face=&quot;Fredericka the Great&quot;&gt;11) Service looks up the template for the job, compiles it using Handlebars and the job payload, and sends notification.&amp;nbsp;&lt;/font&gt;" style="shape=process;whiteSpace=wrap;html=1;backgroundOutline=1;sketch=1;curveFitting=1;jiggle=2;" parent="1" vertex="1">
                    <mxGeometry x="2875" y="540" width="210" height="80" as="geometry"/>
                </mxCell>
                <mxCell id="cjWft2asF4GY3yw1s2Yd-77" value="&lt;font data-font-src=&quot;https://fonts.googleapis.com/css?family=Fredericka+the+Great&quot; face=&quot;Fredericka the Great&quot;&gt;Email Service (SendGrid)&lt;/font&gt;" style="rounded=0;whiteSpace=wrap;html=1;fillColor=#647687;fontColor=#ffffff;strokeColor=#314354;sketch=1;curveFitting=1;jiggle=2;" parent="1" vertex="1">
                    <mxGeometry x="2720" y="340" width="120" height="60" as="geometry"/>
                </mxCell>
                <mxCell id="cjWft2asF4GY3yw1s2Yd-78" value="&lt;font data-font-src=&quot;https://fonts.googleapis.com/css?family=Fredericka+the+Great&quot; face=&quot;Fredericka the Great&quot;&gt;SMS/Voice (Twilio)&lt;/font&gt;" style="rounded=0;whiteSpace=wrap;html=1;fillColor=#647687;fontColor=#ffffff;strokeColor=#314354;sketch=1;curveFitting=1;jiggle=2;" parent="1" vertex="1">
                    <mxGeometry x="2920" y="340" width="120" height="60" as="geometry"/>
                </mxCell>
                <mxCell id="cjWft2asF4GY3yw1s2Yd-79" value="&lt;font data-font-src=&quot;https://fonts.googleapis.com/css?family=Fredericka+the+Great&quot; face=&quot;Fredericka the Great&quot;&gt;Push Notifications (Web)&lt;/font&gt;" style="rounded=0;whiteSpace=wrap;html=1;fillColor=#647687;fontColor=#ffffff;strokeColor=#314354;sketch=1;curveFitting=1;jiggle=2;" parent="1" vertex="1">
                    <mxGeometry x="3120" y="340" width="120" height="60" as="geometry"/>
                </mxCell>
                <mxCell id="cjWft2asF4GY3yw1s2Yd-89" style="edgeStyle=orthogonalEdgeStyle;rounded=0;orthogonalLoop=1;jettySize=auto;html=1;entryX=0.5;entryY=0;entryDx=0;entryDy=0;sketch=1;curveFitting=1;jiggle=2;" parent="1" source="cjWft2asF4GY3yw1s2Yd-86" target="cjWft2asF4GY3yw1s2Yd-88" edge="1">
                    <mxGeometry relative="1" as="geometry"/>
                </mxCell>
                <mxCell id="cjWft2asF4GY3yw1s2Yd-90" value="&lt;font data-font-src=&quot;https://fonts.googleapis.com/css?family=Fredericka+the+Great&quot; face=&quot;Fredericka the Great&quot;&gt;No&lt;/font&gt;" style="edgeLabel;html=1;align=center;verticalAlign=middle;resizable=0;points=[];" parent="cjWft2asF4GY3yw1s2Yd-89" vertex="1" connectable="0">
                    <mxGeometry x="-0.033" y="-3" relative="1" as="geometry">
                        <mxPoint x="3" as="offset"/>
                    </mxGeometry>
                </mxCell>
                <mxCell id="cjWft2asF4GY3yw1s2Yd-94" style="edgeStyle=orthogonalEdgeStyle;rounded=0;orthogonalLoop=1;jettySize=auto;html=1;exitX=0.5;exitY=0;exitDx=0;exitDy=0;entryX=0;entryY=0.5;entryDx=0;entryDy=0;sketch=1;curveFitting=1;jiggle=2;" parent="1" source="cjWft2asF4GY3yw1s2Yd-86" target="cjWft2asF4GY3yw1s2Yd-93" edge="1">
                    <mxGeometry relative="1" as="geometry">
                        <Array as="points">
                            <mxPoint x="3220" y="480"/>
                            <mxPoint x="3320" y="480"/>
                            <mxPoint x="3320" y="580"/>
                        </Array>
                    </mxGeometry>
                </mxCell>
                <mxCell id="cjWft2asF4GY3yw1s2Yd-95" value="&lt;font data-font-src=&quot;https://fonts.googleapis.com/css?family=Fredericka+the+Great&quot; face=&quot;Fredericka the Great&quot;&gt;Yes&lt;/font&gt;" style="edgeLabel;html=1;align=center;verticalAlign=middle;resizable=0;points=[];" parent="cjWft2asF4GY3yw1s2Yd-94" vertex="1" connectable="0">
                    <mxGeometry x="-0.331" y="-1" relative="1" as="geometry">
                        <mxPoint as="offset"/>
                    </mxGeometry>
                </mxCell>
                <mxCell id="cjWft2asF4GY3yw1s2Yd-86" value="&lt;font data-font-src=&quot;https://fonts.googleapis.com/css?family=Fredericka+the+Great&quot; face=&quot;Fredericka the Great&quot;&gt;&amp;nbsp;12) Successful?*&lt;/font&gt;" style="rhombus;whiteSpace=wrap;html=1;sketch=1;curveFitting=1;jiggle=2;" parent="1" vertex="1">
                    <mxGeometry x="3160" y="522.5" width="120" height="115" as="geometry"/>
                </mxCell>
                <mxCell id="cjWft2asF4GY3yw1s2Yd-91" style="edgeStyle=orthogonalEdgeStyle;rounded=0;orthogonalLoop=1;jettySize=auto;html=1;entryX=1;entryY=0.5;entryDx=0;entryDy=0;entryPerimeter=0;exitX=0.5;exitY=1;exitDx=0;exitDy=0;sketch=1;curveFitting=1;jiggle=2;" parent="1" source="cjWft2asF4GY3yw1s2Yd-88" target="cjWft2asF4GY3yw1s2Yd-67" edge="1">
                    <mxGeometry relative="1" as="geometry">
                        <mxPoint x="3220" y="915" as="sourcePoint"/>
                        <mxPoint x="2460" y="690" as="targetPoint"/>
                        <Array as="points">
                            <mxPoint x="3220" y="930"/>
                            <mxPoint x="2460" y="930"/>
                        </Array>
                    </mxGeometry>
                </mxCell>
                <mxCell id="cjWft2asF4GY3yw1s2Yd-92" value="&lt;font data-font-src=&quot;https://fonts.googleapis.com/css?family=Fredericka+the+Great&quot; face=&quot;Fredericka the Great&quot;&gt;Yes? The Notification Service places&lt;br&gt;the job back into the queue w/an&lt;br&gt;exponential delay.&lt;/font&gt;" style="edgeLabel;html=1;align=center;verticalAlign=middle;resizable=0;points=[];" parent="cjWft2asF4GY3yw1s2Yd-91" vertex="1" connectable="0">
                    <mxGeometry x="-0.2386" y="1" relative="1" as="geometry">
                        <mxPoint as="offset"/>
                    </mxGeometry>
                </mxCell>
                <mxCell id="cjWft2asF4GY3yw1s2Yd-96" style="edgeStyle=orthogonalEdgeStyle;rounded=0;orthogonalLoop=1;jettySize=auto;html=1;exitX=1;exitY=0.5;exitDx=0;exitDy=0;entryX=0;entryY=0.5;entryDx=0;entryDy=0;sketch=1;curveFitting=1;jiggle=2;" parent="1" source="cjWft2asF4GY3yw1s2Yd-88" target="cjWft2asF4GY3yw1s2Yd-93" edge="1">
                    <mxGeometry relative="1" as="geometry"/>
                </mxCell>
                <mxCell id="cjWft2asF4GY3yw1s2Yd-97" value="&lt;font data-font-src=&quot;https://fonts.googleapis.com/css?family=Fredericka+the+Great&quot; face=&quot;Fredericka the Great&quot;&gt;No&lt;/font&gt;" style="edgeLabel;html=1;align=center;verticalAlign=middle;resizable=0;points=[];" parent="cjWft2asF4GY3yw1s2Yd-96" vertex="1" connectable="0">
                    <mxGeometry x="-0.0217" y="-2" relative="1" as="geometry">
                        <mxPoint y="1" as="offset"/>
                    </mxGeometry>
                </mxCell>
                <mxCell id="cjWft2asF4GY3yw1s2Yd-88" value="&lt;font data-font-src=&quot;https://fonts.googleapis.com/css?family=Fredericka+the+Great&quot; face=&quot;Fredericka the Great&quot;&gt;Retry?&lt;/font&gt;" style="rhombus;whiteSpace=wrap;html=1;sketch=1;curveFitting=1;jiggle=2;" parent="1" vertex="1">
                    <mxGeometry x="3160" y="730" width="120" height="115" as="geometry"/>
                </mxCell>
                <mxCell id="cjWft2asF4GY3yw1s2Yd-93" value="" style="ellipse;whiteSpace=wrap;html=1;aspect=fixed;sketch=1;curveFitting=1;jiggle=2;" parent="1" vertex="1">
                    <mxGeometry x="3360" y="540" width="80" height="80" as="geometry"/>
                </mxCell>
                <mxCell id="cjWft2asF4GY3yw1s2Yd-105" style="edgeStyle=orthogonalEdgeStyle;rounded=0;orthogonalLoop=1;jettySize=auto;html=1;entryX=0.5;entryY=1;entryDx=0;entryDy=0;entryPerimeter=0;sketch=1;curveFitting=1;jiggle=2;" parent="1" source="cjWft2asF4GY3yw1s2Yd-99" target="cjWft2asF4GY3yw1s2Yd-67" edge="1">
                    <mxGeometry relative="1" as="geometry">
                        <Array as="points">
                            <mxPoint x="2270" y="720"/>
                            <mxPoint x="2360" y="720"/>
                            <mxPoint x="2360" y="580"/>
                        </Array>
                    </mxGeometry>
                </mxCell>
                <mxCell id="cjWft2asF4GY3yw1s2Yd-107" value="&lt;font data-font-src=&quot;https://fonts.googleapis.com/css?family=Fredericka+the+Great&quot; face=&quot;Fredericka the Great&quot;&gt;Yes&lt;/font&gt;" style="edgeLabel;html=1;align=center;verticalAlign=middle;resizable=0;points=[];" parent="cjWft2asF4GY3yw1s2Yd-105" vertex="1" connectable="0">
                    <mxGeometry x="-0.7543" relative="1" as="geometry">
                        <mxPoint as="offset"/>
                    </mxGeometry>
                </mxCell>
                <mxCell id="cjWft2asF4GY3yw1s2Yd-113" style="edgeStyle=orthogonalEdgeStyle;rounded=0;orthogonalLoop=1;jettySize=auto;html=1;exitX=0.5;exitY=0;exitDx=0;exitDy=0;entryX=0.5;entryY=1;entryDx=0;entryDy=0;sketch=1;curveFitting=1;jiggle=2;" parent="1" source="cjWft2asF4GY3yw1s2Yd-99" target="cjWft2asF4GY3yw1s2Yd-112" edge="1">
                    <mxGeometry relative="1" as="geometry"/>
                </mxCell>
                <mxCell id="cjWft2asF4GY3yw1s2Yd-114" value="&lt;font data-font-src=&quot;https://fonts.googleapis.com/css?family=Fredericka+the+Great&quot; face=&quot;Fredericka the Great&quot;&gt;No&lt;/font&gt;" style="edgeLabel;html=1;align=center;verticalAlign=middle;resizable=0;points=[];" parent="cjWft2asF4GY3yw1s2Yd-113" vertex="1" connectable="0">
                    <mxGeometry x="-0.0769" y="-3" relative="1" as="geometry">
                        <mxPoint x="-3" as="offset"/>
                    </mxGeometry>
                </mxCell>
                <mxCell id="cjWft2asF4GY3yw1s2Yd-99" value="&lt;font data-font-src=&quot;https://fonts.googleapis.com/css?family=Fredericka+the+Great&quot; face=&quot;Fredericka the Great&quot;&gt;&amp;nbsp;8) Successful?*&lt;/font&gt;" style="rhombus;whiteSpace=wrap;html=1;sketch=1;curveFitting=1;jiggle=2;" parent="1" vertex="1">
                    <mxGeometry x="2210" y="522.5" width="120" height="115" as="geometry"/>
                </mxCell>
                <mxCell id="cjWft2asF4GY3yw1s2Yd-103" value="&lt;font data-font-src=&quot;https://fonts.googleapis.com/css?family=Fredericka+the+Great&quot; face=&quot;Fredericka the Great&quot;&gt;9) Publish jobs (messages)&lt;br&gt;to BullMQ.&lt;/font&gt;" style="edgeLabel;html=1;align=center;verticalAlign=middle;resizable=0;points=[];" parent="1" vertex="1" connectable="0">
                    <mxGeometry x="2120.0033333333336" y="580" as="geometry"/>
                </mxCell>
                <mxCell id="cjWft2asF4GY3yw1s2Yd-109" value="&lt;font data-font-src=&quot;https://fonts.googleapis.com/css?family=Fredericka+the+Great&quot; face=&quot;Fredericka the Great&quot;&gt;* Messages will be retried when a failure occurs at any point during a flow if (1) it is a recoverable exception and (2) retry attempts have not be reached.&lt;/font&gt;" style="text;html=1;strokeColor=none;fillColor=none;align=center;verticalAlign=middle;whiteSpace=wrap;rounded=0;" parent="1" vertex="1">
                    <mxGeometry x="3040" y="950" width="350" height="70" as="geometry"/>
                </mxCell>
                <mxCell id="cjWft2asF4GY3yw1s2Yd-115" style="edgeStyle=orthogonalEdgeStyle;rounded=0;orthogonalLoop=1;jettySize=auto;html=1;exitX=1;exitY=0.5;exitDx=0;exitDy=0;entryX=0;entryY=0.5;entryDx=0;entryDy=0;sketch=1;curveFitting=1;jiggle=2;" parent="1" source="cjWft2asF4GY3yw1s2Yd-112" target="cjWft2asF4GY3yw1s2Yd-93" edge="1">
                    <mxGeometry relative="1" as="geometry">
                        <Array as="points">
                            <mxPoint x="2845" y="258"/>
                            <mxPoint x="3320" y="258"/>
                            <mxPoint x="3320" y="580"/>
                        </Array>
                    </mxGeometry>
                </mxCell>
                <mxCell id="cjWft2asF4GY3yw1s2Yd-116" value="No" style="edgeLabel;html=1;align=center;verticalAlign=middle;resizable=0;points=[];" parent="cjWft2asF4GY3yw1s2Yd-115" vertex="1" connectable="0">
                    <mxGeometry x="-0.2267" y="4" relative="1" as="geometry">
                        <mxPoint y="4" as="offset"/>
                    </mxGeometry>
                </mxCell>
                <mxCell id="cjWft2asF4GY3yw1s2Yd-120" style="edgeStyle=orthogonalEdgeStyle;rounded=0;orthogonalLoop=1;jettySize=auto;html=1;entryX=1;entryY=0.5;entryDx=0;entryDy=0;sketch=1;curveFitting=1;jiggle=2;" parent="1" source="cjWft2asF4GY3yw1s2Yd-112" target="cjWft2asF4GY3yw1s2Yd-117" edge="1">
                    <mxGeometry relative="1" as="geometry">
                        <Array as="points">
                            <mxPoint x="2270" y="80"/>
                            <mxPoint x="240" y="80"/>
                            <mxPoint x="240" y="150"/>
                        </Array>
                    </mxGeometry>
                </mxCell>
                <mxCell id="cjWft2asF4GY3yw1s2Yd-122" value="&lt;font data-font-src=&quot;https://fonts.googleapis.com/css?family=Fredericka+the+Great&quot; face=&quot;Fredericka the Great&quot;&gt;Yes? The Distribution Services NACK's the message,&lt;br&gt;causing it to be routed the dead letter exchange.&lt;/font&gt;" style="edgeLabel;html=1;align=center;verticalAlign=middle;resizable=0;points=[];" parent="cjWft2asF4GY3yw1s2Yd-120" vertex="1" connectable="0">
                    <mxGeometry x="0.0057" y="3" relative="1" as="geometry">
                        <mxPoint x="1" as="offset"/>
                    </mxGeometry>
                </mxCell>
                <mxCell id="cjWft2asF4GY3yw1s2Yd-112" value="&lt;font data-font-src=&quot;https://fonts.googleapis.com/css?family=Fredericka+the+Great&quot; face=&quot;Fredericka the Great&quot;&gt;Retry?&lt;/font&gt;" style="rhombus;whiteSpace=wrap;html=1;sketch=1;curveFitting=1;jiggle=2;" parent="1" vertex="1">
                    <mxGeometry x="2210" y="200" width="120" height="115" as="geometry"/>
                </mxCell>
                <mxCell id="cjWft2asF4GY3yw1s2Yd-119" style="edgeStyle=orthogonalEdgeStyle;rounded=0;orthogonalLoop=1;jettySize=auto;html=1;exitX=0;exitY=0.5;exitDx=0;exitDy=0;entryX=0.5;entryY=1;entryDx=0;entryDy=0;entryPerimeter=0;sketch=1;curveFitting=1;jiggle=2;" parent="1" source="cjWft2asF4GY3yw1s2Yd-117" target="cjWft2asF4GY3yw1s2Yd-118" edge="1">
                    <mxGeometry relative="1" as="geometry"/>
                </mxCell>
                <mxCell id="cjWft2asF4GY3yw1s2Yd-117" value="&lt;font data-font-src=&quot;https://fonts.googleapis.com/css?family=Fredericka+the+Great&quot; face=&quot;Fredericka the Great&quot;&gt;Dead Letter Exchange&lt;/font&gt;" style="triangle;whiteSpace=wrap;html=1;direction=west;align=right;sketch=1;curveFitting=1;jiggle=2;" parent="1" vertex="1">
                    <mxGeometry x="320" y="110" width="80" height="80" as="geometry"/>
                </mxCell>
                <mxCell id="cjWft2asF4GY3yw1s2Yd-127" style="edgeStyle=orthogonalEdgeStyle;rounded=0;orthogonalLoop=1;jettySize=auto;html=1;exitX=0.5;exitY=0;exitDx=0;exitDy=0;exitPerimeter=0;entryX=1;entryY=0.5;entryDx=0;entryDy=0;sketch=1;curveFitting=1;jiggle=2;" parent="1" source="cjWft2asF4GY3yw1s2Yd-118" target="cjWft2asF4GY3yw1s2Yd-125" edge="1">
                    <mxGeometry relative="1" as="geometry">
                        <Array as="points">
                            <mxPoint x="700" y="150"/>
                            <mxPoint x="700" y="260"/>
                            <mxPoint x="20" y="260"/>
                            <mxPoint x="20" y="580"/>
                        </Array>
                    </mxGeometry>
                </mxCell>
                <mxCell id="cjWft2asF4GY3yw1s2Yd-128" value="&lt;font data-font-src=&quot;https://fonts.googleapis.com/css?family=Fredericka+the+Great&quot; face=&quot;Fredericka the Great&quot;&gt;The message TTL expires and it is sent to the Distribution Exchange, &lt;br&gt;which only publishes messages to the Distribution Queue.&lt;/font&gt;" style="edgeLabel;html=1;align=center;verticalAlign=middle;resizable=0;points=[];" parent="cjWft2asF4GY3yw1s2Yd-127" vertex="1" connectable="0">
                    <mxGeometry x="-0.3534" y="-1" relative="1" as="geometry">
                        <mxPoint x="1" as="offset"/>
                    </mxGeometry>
                </mxCell>
                <mxCell id="cjWft2asF4GY3yw1s2Yd-118" value="&lt;font data-font-src=&quot;https://fonts.googleapis.com/css?family=Fredericka+the+Great&quot; face=&quot;Fredericka the Great&quot;&gt;Queue&lt;/font&gt;" style="shape=cylinder3;whiteSpace=wrap;html=1;boundedLbl=1;backgroundOutline=1;size=15;direction=south;sketch=1;curveFitting=1;jiggle=2;" parent="1" vertex="1">
                    <mxGeometry x="560" y="130" width="120" height="40" as="geometry"/>
                </mxCell>
                <mxCell id="cjWft2asF4GY3yw1s2Yd-126" style="edgeStyle=orthogonalEdgeStyle;rounded=0;orthogonalLoop=1;jettySize=auto;html=1;entryX=0.5;entryY=1;entryDx=0;entryDy=0;entryPerimeter=0;sketch=1;curveFitting=1;jiggle=2;" parent="1" source="cjWft2asF4GY3yw1s2Yd-125" target="cjWft2asF4GY3yw1s2Yd-12" edge="1">
                    <mxGeometry relative="1" as="geometry"/>
                </mxCell>
                <mxCell id="cjWft2asF4GY3yw1s2Yd-125" value="&lt;font data-font-src=&quot;https://fonts.googleapis.com/css?family=Fredericka+the+Great&quot; face=&quot;Fredericka the Great&quot;&gt;Distribution Exchange&lt;/font&gt;" style="triangle;whiteSpace=wrap;html=1;direction=west;align=right;sketch=1;curveFitting=1;jiggle=2;" parent="1" vertex="1">
                    <mxGeometry x="320" y="540" width="80" height="80" as="geometry"/>
                </mxCell>
                <mxCell id="cjWft2asF4GY3yw1s2Yd-129" value="&lt;font data-font-src=&quot;https://fonts.googleapis.com/css?family=Fredericka+the+Great&quot; face=&quot;Fredericka the Great&quot; style=&quot;font-size: 36px;&quot;&gt;Hermes | Distribution/Notification Flow&lt;/font&gt;" style="text;html=1;strokeColor=none;fillColor=none;align=left;verticalAlign=middle;whiteSpace=wrap;rounded=0;" parent="1" vertex="1">
                    <mxGeometry x="40" y="20" width="670" height="30" as="geometry"/>
                </mxCell>
                <mxCell id="rAESAnFBt7cgcLHixQZ8-1" value="&lt;font data-font-src=&quot;https://fonts.googleapis.com/css?family=Fredericka+the+Great&quot; face=&quot;Fredericka the Great&quot;&gt;Postgres Database&lt;/font&gt;" style="shape=datastore;whiteSpace=wrap;html=1;sketch=1;curveFitting=1;jiggle=2;" parent="1" vertex="1">
                    <mxGeometry x="1100" y="680" width="80" height="80" as="geometry"/>
                </mxCell>
                <mxCell id="RSEYYGPz1Y0nfMTFapQO-2" value="&lt;font data-font-src=&quot;https://fonts.googleapis.com/css?family=Fredericka+the+Great&quot; face=&quot;Fredericka the Great&quot;&gt;TCP&lt;/font&gt;" style="edgeStyle=orthogonalEdgeStyle;rounded=0;orthogonalLoop=1;jettySize=auto;html=1;startArrow=classic;startFill=1;sketch=1;curveFitting=1;jiggle=2;" parent="1" source="rAESAnFBt7cgcLHixQZ8-4" target="RSEYYGPz1Y0nfMTFapQO-1" edge="1">
                    <mxGeometry relative="1" as="geometry"/>
                </mxCell>
                <mxCell id="rAESAnFBt7cgcLHixQZ8-4" value="&lt;font face=&quot;Fredericka the Great&quot;&gt;Redis Cache Server&lt;/font&gt;" style="shape=datastore;whiteSpace=wrap;html=1;sketch=1;curveFitting=1;jiggle=2;" parent="1" vertex="1">
                    <mxGeometry x="2940" y="680" width="80" height="80" as="geometry"/>
                </mxCell>
                <mxCell id="rAESAnFBt7cgcLHixQZ8-8" value="" style="edgeStyle=orthogonalEdgeStyle;rounded=0;orthogonalLoop=1;jettySize=auto;html=1;exitX=0.5;exitY=0;exitDx=0;exitDy=0;entryX=0;entryY=0.5;entryDx=0;entryDy=0;sketch=1;curveFitting=1;jiggle=2;" parent="1" source="cjWft2asF4GY3yw1s2Yd-41" target="rAESAnFBt7cgcLHixQZ8-7" edge="1">
                    <mxGeometry relative="1" as="geometry">
                        <Array as="points"/>
                        <mxPoint x="1580" y="523" as="sourcePoint"/>
                        <mxPoint x="1840" y="580" as="targetPoint"/>
                    </mxGeometry>
                </mxCell>
                <mxCell id="rAESAnFBt7cgcLHixQZ8-9" value="&lt;font data-font-src=&quot;https://fonts.googleapis.com/css?family=Fredericka+the+Great&quot; face=&quot;Fredericka the Great&quot;&gt;Yes&lt;/font&gt;" style="edgeLabel;html=1;align=center;verticalAlign=middle;resizable=0;points=[];" parent="rAESAnFBt7cgcLHixQZ8-8" vertex="1" connectable="0">
                    <mxGeometry x="-0.8188" relative="1" as="geometry">
                        <mxPoint as="offset"/>
                    </mxGeometry>
                </mxCell>
                <mxCell id="rAESAnFBt7cgcLHixQZ8-10" style="edgeStyle=orthogonalEdgeStyle;rounded=0;orthogonalLoop=1;jettySize=auto;html=1;exitX=1;exitY=0.5;exitDx=0;exitDy=0;entryX=0;entryY=0.5;entryDx=0;entryDy=0;sketch=1;curveFitting=1;jiggle=2;" parent="1" source="rAESAnFBt7cgcLHixQZ8-7" target="cjWft2asF4GY3yw1s2Yd-63" edge="1">
                    <mxGeometry relative="1" as="geometry"/>
                </mxCell>
                <mxCell id="rAESAnFBt7cgcLHixQZ8-7" value="&lt;font data-font-src=&quot;https://fonts.googleapis.com/css?family=Fredericka+the+Great&quot; face=&quot;Fredericka the Great&quot;&gt;Use recipients from message.&lt;/font&gt;" style="shape=process;whiteSpace=wrap;html=1;backgroundOutline=1;sketch=1;curveFitting=1;jiggle=2;" parent="1" vertex="1">
                    <mxGeometry x="1600" y="320" width="200" height="80" as="geometry"/>
                </mxCell>
                <mxCell id="RSEYYGPz1Y0nfMTFapQO-1" value="&lt;font data-font-src=&quot;https://fonts.googleapis.com/css?family=Fredericka+the+Great&quot; face=&quot;Fredericka the Great&quot;&gt;Postgres Database&lt;/font&gt;" style="shape=datastore;whiteSpace=wrap;html=1;sketch=1;curveFitting=1;jiggle=2;" parent="1" vertex="1">
                    <mxGeometry x="2940" y="810" width="80" height="80" as="geometry"/>
                </mxCell>
            </root>
        </mxGraphModel>
    </diagram>
    <diagram id="7zhLP-vgaLAqhbsBu6MR" name="Authentication/Authorization Flow">
        <mxGraphModel dx="2456" dy="1176" grid="1" gridSize="10" guides="1" tooltips="1" connect="1" arrows="1" fold="1" page="0" pageScale="1" pageWidth="850" pageHeight="1100" math="0" shadow="0">
            <root>
                <mxCell id="0"/>
                <mxCell id="1" parent="0"/>
                <mxCell id="LoaX0u0-2imtYCJrDWAy-1" value="&lt;p style=&quot;line-height: 120%;&quot;&gt;&lt;font style=&quot;font-size: 36px;&quot; data-font-src=&quot;https://fonts.googleapis.com/css?family=Fredericka+the+Great&quot; face=&quot;Fredericka the Great&quot;&gt;Hermes | Authentication &amp;amp; Authorization Flow&lt;/font&gt;&lt;/p&gt;" style="text;html=1;strokeColor=none;fillColor=none;align=left;verticalAlign=middle;whiteSpace=wrap;rounded=0;sketch=1;curveFitting=1;jiggle=2;" parent="1" vertex="1">
                    <mxGeometry x="40" y="50" width="790" height="30" as="geometry"/>
                </mxCell>
                <mxCell id="LoaX0u0-2imtYCJrDWAy-2" value="" style="edgeStyle=orthogonalEdgeStyle;rounded=0;hachureGap=4;orthogonalLoop=1;jettySize=auto;html=1;fontFamily=Architects Daughter;fontSource=https%3A%2F%2Ffonts.googleapis.com%2Fcss%3Ffamily%3DArchitects%2BDaughter;fontSize=16;sketch=1;curveFitting=1;jiggle=2;" parent="1" source="LoaX0u0-2imtYCJrDWAy-3" target="LoaX0u0-2imtYCJrDWAy-17" edge="1">
                    <mxGeometry relative="1" as="geometry"/>
                </mxCell>
                <mxCell id="LoaX0u0-2imtYCJrDWAy-3" value="&lt;font data-font-src=&quot;https://fonts.googleapis.com/css?family=Fredericka+the+Great&quot; face=&quot;Fredericka the Great&quot; style=&quot;font-size: 12px;&quot;&gt;Microservice*&lt;/font&gt;" style="rounded=0;whiteSpace=wrap;html=1;hachureGap=4;fontFamily=Helvetica;fontSource=https%3A%2F%2Ffonts.googleapis.com%2Fcss%3Ffamily%3DArchitects%2BDaughter;fontSize=12;fillColor=#1ba1e2;fontColor=#ffffff;strokeColor=#006EAF;sketch=1;curveFitting=1;jiggle=2;" parent="1" vertex="1">
                    <mxGeometry x="470" y="289.5" width="120" height="60" as="geometry"/>
                </mxCell>
                <mxCell id="LoaX0u0-2imtYCJrDWAy-4" value="" style="edgeStyle=orthogonalEdgeStyle;rounded=0;hachureGap=4;orthogonalLoop=1;jettySize=auto;html=1;fontFamily=Architects Daughter;fontSource=https%3A%2F%2Ffonts.googleapis.com%2Fcss%3Ffamily%3DArchitects%2BDaughter;fontSize=16;startArrow=classic;startFill=1;sketch=1;curveFitting=1;jiggle=2;" parent="1" source="LoaX0u0-2imtYCJrDWAy-5" target="LoaX0u0-2imtYCJrDWAy-23" edge="1">
                    <mxGeometry relative="1" as="geometry"/>
                </mxCell>
                <mxCell id="LoaX0u0-2imtYCJrDWAy-5" value="&lt;font data-font-src=&quot;https://fonts.googleapis.com/css?family=Fredericka+the+Great&quot; face=&quot;Fredericka the Great&quot; style=&quot;font-size: 12px;&quot;&gt;IAM Service&lt;/font&gt;" style="rounded=0;whiteSpace=wrap;html=1;hachureGap=4;fontFamily=Helvetica;fontSource=https%3A%2F%2Ffonts.googleapis.com%2Fcss%3Ffamily%3DArchitects%2BDaughter;fontSize=12;fillColor=#1ba1e2;fontColor=#ffffff;strokeColor=#006EAF;sketch=1;curveFitting=1;jiggle=2;" parent="1" vertex="1">
                    <mxGeometry x="1110" y="467" width="120" height="60" as="geometry"/>
                </mxCell>
                <mxCell id="LoaX0u0-2imtYCJrDWAy-6" value="" style="group;rounded=0;sketch=1;curveFitting=1;jiggle=2;" parent="1" vertex="1" connectable="0">
                    <mxGeometry x="80" y="278.25" width="80" height="110" as="geometry"/>
                </mxCell>
                <mxCell id="LoaX0u0-2imtYCJrDWAy-7" value="" style="points=[[0.35,0,0],[0.98,0.51,0],[1,0.71,0],[0.67,1,0],[0,0.795,0],[0,0.65,0]];verticalLabelPosition=bottom;html=1;verticalAlign=top;aspect=fixed;align=center;pointerEvents=1;shape=mxgraph.cisco19.user;fillColor=#6d8764;strokeColor=#3A5431;hachureGap=4;fontFamily=Architects Daughter;fontSource=https%3A%2F%2Ffonts.googleapis.com%2Fcss%3Ffamily%3DArchitects%2BDaughter;fontSize=20;fontColor=#ffffff;rounded=0;sketch=1;curveFitting=1;jiggle=2;" parent="LoaX0u0-2imtYCJrDWAy-6" vertex="1">
                    <mxGeometry width="80" height="80" as="geometry"/>
                </mxCell>
                <mxCell id="LoaX0u0-2imtYCJrDWAy-8" value="&lt;font data-font-src=&quot;https://fonts.googleapis.com/css?family=Fredericka+the+Great&quot; face=&quot;Fredericka the Great&quot; style=&quot;font-size: 12px;&quot;&gt;Client&lt;/font&gt;" style="text;html=1;strokeColor=none;fillColor=none;align=center;verticalAlign=middle;whiteSpace=wrap;rounded=0;fontSize=20;fontFamily=Architects Daughter;sketch=1;curveFitting=1;jiggle=2;" parent="LoaX0u0-2imtYCJrDWAy-6" vertex="1">
                    <mxGeometry x="10" y="80" width="60" height="30" as="geometry"/>
                </mxCell>
                <mxCell id="LoaX0u0-2imtYCJrDWAy-9" style="edgeStyle=orthogonalEdgeStyle;rounded=0;hachureGap=4;orthogonalLoop=1;jettySize=auto;html=1;exitX=0.5;exitY=1;exitDx=0;exitDy=0;entryX=0.5;entryY=0;entryDx=0;entryDy=0;fontFamily=Architects Daughter;fontSource=https%3A%2F%2Ffonts.googleapis.com%2Fcss%3Ffamily%3DArchitects%2BDaughter;fontSize=16;startArrow=classic;startFill=1;sketch=1;curveFitting=1;jiggle=2;" parent="1" source="LoaX0u0-2imtYCJrDWAy-12" target="LoaX0u0-2imtYCJrDWAy-5" edge="1">
                    <mxGeometry relative="1" as="geometry"/>
                </mxCell>
                <mxCell id="LoaX0u0-2imtYCJrDWAy-10" value="&lt;font style=&quot;font-size: 12px;&quot; data-font-src=&quot;https://fonts.googleapis.com/css?family=Fredericka+the+Great&quot; face=&quot;Fredericka the Great&quot;&gt;HTTP&lt;/font&gt;" style="edgeLabel;html=1;align=center;verticalAlign=middle;resizable=0;points=[];fontSize=20;fontFamily=Architects Daughter;rounded=0;sketch=1;curveFitting=1;jiggle=2;" parent="LoaX0u0-2imtYCJrDWAy-9" vertex="1" connectable="0">
                    <mxGeometry x="0.0326" y="2" relative="1" as="geometry">
                        <mxPoint as="offset"/>
                    </mxGeometry>
                </mxCell>
                <mxCell id="LoaX0u0-2imtYCJrDWAy-11" style="edgeStyle=orthogonalEdgeStyle;rounded=0;hachureGap=4;orthogonalLoop=1;jettySize=auto;html=1;exitX=1;exitY=0.5;exitDx=0;exitDy=0;entryX=0;entryY=0.5;entryDx=0;entryDy=0;fontFamily=Architects Daughter;fontSource=https%3A%2F%2Ffonts.googleapis.com%2Fcss%3Ffamily%3DArchitects%2BDaughter;fontSize=16;sketch=1;curveFitting=1;jiggle=2;" parent="1" source="LoaX0u0-2imtYCJrDWAy-12" target="LoaX0u0-2imtYCJrDWAy-28" edge="1">
                    <mxGeometry relative="1" as="geometry"/>
                </mxCell>
                <mxCell id="LoaX0u0-2imtYCJrDWAy-12" value="" style="shape=process;whiteSpace=wrap;html=1;backgroundOutline=1;hachureGap=4;fontFamily=Helvetica;fontSource=https%3A%2F%2Ffonts.googleapis.com%2Fcss%3Ffamily%3DArchitects%2BDaughter;fontSize=12;rounded=0;sketch=1;curveFitting=1;jiggle=2;" parent="1" vertex="1">
                    <mxGeometry x="1070" y="279.5" width="200" height="80" as="geometry"/>
                </mxCell>
                <mxCell id="LoaX0u0-2imtYCJrDWAy-13" style="edgeStyle=orthogonalEdgeStyle;rounded=0;hachureGap=4;orthogonalLoop=1;jettySize=auto;html=1;entryX=0;entryY=0.5;entryDx=0;entryDy=0;fontFamily=Architects Daughter;fontSource=https%3A%2F%2Ffonts.googleapis.com%2Fcss%3Ffamily%3DArchitects%2BDaughter;fontSize=16;sketch=1;curveFitting=1;jiggle=2;" parent="1" source="LoaX0u0-2imtYCJrDWAy-17" target="LoaX0u0-2imtYCJrDWAy-22" edge="1">
                    <mxGeometry relative="1" as="geometry">
                        <Array as="points">
                            <mxPoint x="730" y="497.5"/>
                            <mxPoint x="810" y="497.5"/>
                        </Array>
                    </mxGeometry>
                </mxCell>
                <mxCell id="LoaX0u0-2imtYCJrDWAy-14" value="&lt;font data-font-src=&quot;https://fonts.googleapis.com/css?family=Fredericka+the+Great&quot; face=&quot;Fredericka the Great&quot; style=&quot;font-size: 12px;&quot;&gt;No&lt;/font&gt;" style="edgeLabel;html=1;align=center;verticalAlign=middle;resizable=0;points=[];fontSize=20;fontFamily=Architects Daughter;rounded=0;sketch=1;curveFitting=1;jiggle=2;" parent="LoaX0u0-2imtYCJrDWAy-13" vertex="1" connectable="0">
                    <mxGeometry x="-0.4377" y="2" relative="1" as="geometry">
                        <mxPoint x="-2" y="-10" as="offset"/>
                    </mxGeometry>
                </mxCell>
                <mxCell id="LoaX0u0-2imtYCJrDWAy-15" style="edgeStyle=orthogonalEdgeStyle;rounded=0;hachureGap=4;orthogonalLoop=1;jettySize=auto;html=1;exitX=0.5;exitY=0;exitDx=0;exitDy=0;entryX=0;entryY=0.5;entryDx=0;entryDy=0;fontFamily=Fredericka the Great;fontSource=https%3A%2F%2Ffonts.googleapis.com%2Fcss%3Ffamily%3DFredericka%2Bthe%2BGreat;fontSize=16;sketch=1;curveFitting=1;jiggle=2;" parent="1" source="LoaX0u0-2imtYCJrDWAy-17" target="LoaX0u0-2imtYCJrDWAy-37" edge="1">
                    <mxGeometry relative="1" as="geometry">
                        <Array as="points">
                            <mxPoint x="730" y="140"/>
                            <mxPoint x="1820" y="140"/>
                            <mxPoint x="1820" y="320"/>
                        </Array>
                    </mxGeometry>
                </mxCell>
                <mxCell id="LoaX0u0-2imtYCJrDWAy-16" value="&lt;font style=&quot;font-size: 12px;&quot; data-font-src=&quot;https://fonts.googleapis.com/css?family=Fredericka+the+Great&quot; face=&quot;Fredericka the Great&quot;&gt;Yes&lt;/font&gt;" style="edgeLabel;html=1;align=center;verticalAlign=middle;resizable=0;points=[];fontSize=20;fontFamily=Architects Daughter;rounded=0;sketch=1;curveFitting=1;jiggle=2;" parent="LoaX0u0-2imtYCJrDWAy-15" vertex="1" connectable="0">
                    <mxGeometry x="-0.9151" y="4" relative="1" as="geometry">
                        <mxPoint x="4" y="-1" as="offset"/>
                    </mxGeometry>
                </mxCell>
                <mxCell id="LoaX0u0-2imtYCJrDWAy-17" value="&lt;font face=&quot;Fredericka the Great&quot;&gt;2) Is public endpoint?&lt;/font&gt;" style="rhombus;whiteSpace=wrap;html=1;rounded=0;sketch=1;curveFitting=1;jiggle=2;" parent="1" vertex="1">
                    <mxGeometry x="670" y="262" width="120" height="115" as="geometry"/>
                </mxCell>
                <mxCell id="LoaX0u0-2imtYCJrDWAy-18" style="edgeStyle=orthogonalEdgeStyle;rounded=0;hachureGap=4;orthogonalLoop=1;jettySize=auto;html=1;exitX=0.5;exitY=0;exitDx=0;exitDy=0;entryX=0;entryY=0.5;entryDx=0;entryDy=0;fontFamily=Architects Daughter;fontSource=https%3A%2F%2Ffonts.googleapis.com%2Fcss%3Ffamily%3DArchitects%2BDaughter;fontSize=16;sketch=1;curveFitting=1;jiggle=2;" parent="1" source="LoaX0u0-2imtYCJrDWAy-22" target="LoaX0u0-2imtYCJrDWAy-12" edge="1">
                    <mxGeometry relative="1" as="geometry"/>
                </mxCell>
                <mxCell id="LoaX0u0-2imtYCJrDWAy-19" value="&lt;font style=&quot;font-size: 12px;&quot; data-font-src=&quot;https://fonts.googleapis.com/css?family=Fredericka+the+Great&quot; face=&quot;Fredericka the Great&quot;&gt;Yes&lt;/font&gt;" style="edgeLabel;html=1;align=center;verticalAlign=middle;resizable=0;points=[];fontSize=20;fontFamily=Architects Daughter;rounded=0;sketch=1;curveFitting=1;jiggle=2;" parent="LoaX0u0-2imtYCJrDWAy-18" vertex="1" connectable="0">
                    <mxGeometry x="-0.5615" relative="1" as="geometry">
                        <mxPoint as="offset"/>
                    </mxGeometry>
                </mxCell>
                <mxCell id="LoaX0u0-2imtYCJrDWAy-20" style="edgeStyle=orthogonalEdgeStyle;rounded=0;hachureGap=4;orthogonalLoop=1;jettySize=auto;html=1;entryX=0;entryY=0.5;entryDx=0;entryDy=0;fontFamily=Architects Daughter;fontSource=https%3A%2F%2Ffonts.googleapis.com%2Fcss%3Ffamily%3DArchitects%2BDaughter;fontSize=16;sketch=1;curveFitting=1;jiggle=2;" parent="1" source="LoaX0u0-2imtYCJrDWAy-22" target="LoaX0u0-2imtYCJrDWAy-34" edge="1">
                    <mxGeometry relative="1" as="geometry">
                        <Array as="points">
                            <mxPoint x="930" y="802"/>
                            <mxPoint x="1440" y="802"/>
                            <mxPoint x="1440" y="713"/>
                        </Array>
                    </mxGeometry>
                </mxCell>
                <mxCell id="LoaX0u0-2imtYCJrDWAy-21" value="&lt;font style=&quot;font-size: 12px;&quot; data-font-src=&quot;https://fonts.googleapis.com/css?family=Fredericka+the+Great&quot; face=&quot;Fredericka the Great&quot;&gt;No&lt;/font&gt;" style="edgeLabel;html=1;align=center;verticalAlign=middle;resizable=0;points=[];fontSize=20;fontFamily=Architects Daughter;rounded=0;sketch=1;curveFitting=1;jiggle=2;" parent="LoaX0u0-2imtYCJrDWAy-20" vertex="1" connectable="0">
                    <mxGeometry x="-0.7829" y="4" relative="1" as="geometry">
                        <mxPoint x="-4" y="-27" as="offset"/>
                    </mxGeometry>
                </mxCell>
                <mxCell id="LoaX0u0-2imtYCJrDWAy-22" value="&lt;font face=&quot;Fredericka the Great&quot;&gt;&amp;nbsp;3) Has authentication header &amp;amp; token?&lt;/font&gt;" style="rhombus;whiteSpace=wrap;html=1;rounded=0;sketch=1;curveFitting=1;jiggle=2;" parent="1" vertex="1">
                    <mxGeometry x="870" y="439.5" width="120" height="115" as="geometry"/>
                </mxCell>
                <mxCell id="LoaX0u0-2imtYCJrDWAy-23" value="&lt;font data-font-src=&quot;https://fonts.googleapis.com/css?family=Fredericka+the+Great&quot; face=&quot;Fredericka the Great&quot;&gt;Verify the provided token based on the specified authentication method (Bearer or ApiKey). Return the claims to the requestor.&lt;/font&gt;" style="shape=process;whiteSpace=wrap;html=1;backgroundOutline=1;hachureGap=4;fontFamily=Helvetica;fontSource=https%3A%2F%2Ffonts.googleapis.com%2Fcss%3Ffamily%3DArchitects%2BDaughter;fontSize=12;rounded=0;sketch=1;curveFitting=1;jiggle=2;" parent="1" vertex="1">
                    <mxGeometry x="1070" y="632" width="200" height="80" as="geometry"/>
                </mxCell>
                <mxCell id="LoaX0u0-2imtYCJrDWAy-24" style="edgeStyle=orthogonalEdgeStyle;rounded=0;hachureGap=4;orthogonalLoop=1;jettySize=auto;html=1;entryX=0;entryY=0.5;entryDx=0;entryDy=0;fontFamily=Architects Daughter;fontSource=https%3A%2F%2Ffonts.googleapis.com%2Fcss%3Ffamily%3DArchitects%2BDaughter;fontSize=16;sketch=1;curveFitting=1;jiggle=2;" parent="1" source="LoaX0u0-2imtYCJrDWAy-28" target="LoaX0u0-2imtYCJrDWAy-32" edge="1">
                    <mxGeometry relative="1" as="geometry">
                        <Array as="points">
                            <mxPoint x="1440" y="202"/>
                            <mxPoint x="1550" y="202"/>
                            <mxPoint x="1550" y="320"/>
                        </Array>
                    </mxGeometry>
                </mxCell>
                <mxCell id="LoaX0u0-2imtYCJrDWAy-25" value="&lt;font data-font-src=&quot;https://fonts.googleapis.com/css?family=Fredericka+the+Great&quot; face=&quot;Fredericka the Great&quot; style=&quot;font-size: 12px;&quot;&gt;Yes&lt;/font&gt;" style="edgeLabel;html=1;align=center;verticalAlign=middle;resizable=0;points=[];fontSize=20;fontFamily=Architects Daughter;rounded=0;sketch=1;curveFitting=1;jiggle=2;" parent="LoaX0u0-2imtYCJrDWAy-24" vertex="1" connectable="0">
                    <mxGeometry x="-0.3166" y="2" relative="1" as="geometry">
                        <mxPoint x="-9" as="offset"/>
                    </mxGeometry>
                </mxCell>
                <mxCell id="LoaX0u0-2imtYCJrDWAy-26" style="edgeStyle=orthogonalEdgeStyle;rounded=0;hachureGap=4;orthogonalLoop=1;jettySize=auto;html=1;exitX=0.5;exitY=1;exitDx=0;exitDy=0;entryX=0;entryY=0.5;entryDx=0;entryDy=0;fontFamily=Architects Daughter;fontSource=https%3A%2F%2Ffonts.googleapis.com%2Fcss%3Ffamily%3DArchitects%2BDaughter;fontSize=16;sketch=1;curveFitting=1;jiggle=2;" parent="1" source="LoaX0u0-2imtYCJrDWAy-28" target="LoaX0u0-2imtYCJrDWAy-34" edge="1">
                    <mxGeometry relative="1" as="geometry">
                        <Array as="points">
                            <mxPoint x="1440" y="377"/>
                            <mxPoint x="1440" y="713"/>
                        </Array>
                    </mxGeometry>
                </mxCell>
                <mxCell id="LoaX0u0-2imtYCJrDWAy-27" value="&lt;font data-font-src=&quot;https://fonts.googleapis.com/css?family=Fredericka+the+Great&quot; face=&quot;Fredericka the Great&quot; style=&quot;font-size: 12px;&quot;&gt;No&lt;/font&gt;" style="edgeLabel;html=1;align=center;verticalAlign=middle;resizable=0;points=[];fontSize=20;fontFamily=Architects Daughter;rounded=0;sketch=1;curveFitting=1;jiggle=2;" parent="LoaX0u0-2imtYCJrDWAy-26" vertex="1" connectable="0">
                    <mxGeometry x="-0.5071" y="4" relative="1" as="geometry">
                        <mxPoint x="-4" as="offset"/>
                    </mxGeometry>
                </mxCell>
                <mxCell id="LoaX0u0-2imtYCJrDWAy-28" value="&lt;font face=&quot;Fredericka the Great&quot;&gt;4) Is authenticated?&lt;/font&gt;" style="rhombus;whiteSpace=wrap;html=1;rounded=0;sketch=1;curveFitting=1;jiggle=2;" parent="1" vertex="1">
                    <mxGeometry x="1380" y="262" width="120" height="115" as="geometry"/>
                </mxCell>
                <mxCell id="LoaX0u0-2imtYCJrDWAy-29" style="edgeStyle=orthogonalEdgeStyle;rounded=0;hachureGap=4;orthogonalLoop=1;jettySize=auto;html=1;entryX=0.5;entryY=0;entryDx=0;entryDy=0;fontFamily=Architects Daughter;fontSource=https%3A%2F%2Ffonts.googleapis.com%2Fcss%3Ffamily%3DArchitects%2BDaughter;fontSize=16;sketch=1;curveFitting=1;jiggle=2;" parent="1" source="LoaX0u0-2imtYCJrDWAy-32" target="LoaX0u0-2imtYCJrDWAy-35" edge="1">
                    <mxGeometry relative="1" as="geometry"/>
                </mxCell>
                <mxCell id="LoaX0u0-2imtYCJrDWAy-30" value="&lt;font data-font-src=&quot;https://fonts.googleapis.com/css?family=Fredericka+the+Great&quot; face=&quot;Fredericka the Great&quot; style=&quot;font-size: 12px;&quot;&gt;No&lt;/font&gt;" style="edgeLabel;html=1;align=center;verticalAlign=middle;resizable=0;points=[];fontSize=20;fontFamily=Architects Daughter;rounded=0;sketch=1;curveFitting=1;jiggle=2;" parent="LoaX0u0-2imtYCJrDWAy-29" vertex="1" connectable="0">
                    <mxGeometry x="0.0599" y="-1" relative="1" as="geometry">
                        <mxPoint x="1" y="-10" as="offset"/>
                    </mxGeometry>
                </mxCell>
                <mxCell id="LoaX0u0-2imtYCJrDWAy-31" style="edgeStyle=orthogonalEdgeStyle;rounded=0;hachureGap=4;orthogonalLoop=1;jettySize=auto;html=1;exitX=0.5;exitY=0;exitDx=0;exitDy=0;entryX=0;entryY=0.5;entryDx=0;entryDy=0;fontFamily=Architects Daughter;fontSource=https%3A%2F%2Ffonts.googleapis.com%2Fcss%3Ffamily%3DArchitects%2BDaughter;fontSize=16;sketch=1;curveFitting=1;jiggle=2;" parent="1" source="LoaX0u0-2imtYCJrDWAy-32" target="LoaX0u0-2imtYCJrDWAy-37" edge="1">
                    <mxGeometry relative="1" as="geometry">
                        <Array as="points">
                            <mxPoint x="1690" y="200"/>
                            <mxPoint x="1820" y="200"/>
                            <mxPoint x="1820" y="320"/>
                        </Array>
                    </mxGeometry>
                </mxCell>
                <mxCell id="LoaX0u0-2imtYCJrDWAy-32" value="&lt;font face=&quot;Fredericka the Great&quot;&gt;5) Is authorized?&lt;/font&gt;" style="rhombus;whiteSpace=wrap;html=1;rounded=0;sketch=1;curveFitting=1;jiggle=2;" parent="1" vertex="1">
                    <mxGeometry x="1630" y="262" width="120" height="115" as="geometry"/>
                </mxCell>
                <mxCell id="LoaX0u0-2imtYCJrDWAy-33" value="&lt;font data-font-src=&quot;https://fonts.googleapis.com/css?family=Fredericka+the+Great&quot; face=&quot;Fredericka the Great&quot;&gt;Successful**&lt;/font&gt;" style="ellipse;whiteSpace=wrap;html=1;hachureGap=4;fontFamily=Helvetica;fontSource=https%3A%2F%2Ffonts.googleapis.com%2Fcss%3Ffamily%3DArchitects%2BDaughter;fontSize=12;fillColor=#60a917;fontColor=#ffffff;strokeColor=#2D7600;rounded=0;sketch=1;curveFitting=1;jiggle=2;" parent="1" vertex="1">
                    <mxGeometry x="2145" y="278.25" width="80" height="82.5" as="geometry"/>
                </mxCell>
                <mxCell id="LoaX0u0-2imtYCJrDWAy-34" value="&lt;font data-font-src=&quot;https://fonts.googleapis.com/css?family=Fredericka+the+Great&quot; face=&quot;Fredericka the Great&quot;&gt;Unauthorized&lt;/font&gt;" style="ellipse;whiteSpace=wrap;html=1;hachureGap=4;fontFamily=Helvetica;fontSource=https%3A%2F%2Ffonts.googleapis.com%2Fcss%3Ffamily%3DArchitects%2BDaughter;fontSize=12;fillColor=#e51400;fontColor=#ffffff;strokeColor=#B20000;rounded=0;sketch=1;curveFitting=1;jiggle=2;" parent="1" vertex="1">
                    <mxGeometry x="1650" y="672" width="80" height="82.5" as="geometry"/>
                </mxCell>
                <mxCell id="LoaX0u0-2imtYCJrDWAy-35" value="&lt;font data-font-src=&quot;https://fonts.googleapis.com/css?family=Fredericka+the+Great&quot; face=&quot;Fredericka the Great&quot;&gt;Forbidden&lt;/font&gt;" style="ellipse;whiteSpace=wrap;html=1;hachureGap=4;fontFamily=Helvetica;fontSource=https%3A%2F%2Ffonts.googleapis.com%2Fcss%3Ffamily%3DArchitects%2BDaughter;fontSize=12;fillColor=#e51400;fontColor=#ffffff;strokeColor=#B20000;rounded=0;sketch=1;curveFitting=1;jiggle=2;" parent="1" vertex="1">
                    <mxGeometry x="1650" y="482" width="80" height="82.5" as="geometry"/>
                </mxCell>
                <mxCell id="LoaX0u0-2imtYCJrDWAy-36" value="" style="edgeStyle=orthogonalEdgeStyle;rounded=0;hachureGap=4;orthogonalLoop=1;jettySize=auto;html=1;fontFamily=Architects Daughter;fontSource=https%3A%2F%2Ffonts.googleapis.com%2Fcss%3Ffamily%3DArchitects%2BDaughter;fontSize=16;sketch=1;curveFitting=1;jiggle=2;" parent="1" source="LoaX0u0-2imtYCJrDWAy-37" target="LoaX0u0-2imtYCJrDWAy-33" edge="1">
                    <mxGeometry relative="1" as="geometry"/>
                </mxCell>
                <mxCell id="LoaX0u0-2imtYCJrDWAy-37" value="&lt;font data-font-src=&quot;https://fonts.googleapis.com/css?family=Fredericka+the+Great&quot; face=&quot;Fredericka the Great&quot;&gt;6) Serve request&lt;/font&gt;" style="shape=process;whiteSpace=wrap;html=1;backgroundOutline=1;hachureGap=4;fontFamily=Helvetica;fontSource=https%3A%2F%2Ffonts.googleapis.com%2Fcss%3Ffamily%3DArchitects%2BDaughter;fontSize=12;rounded=0;sketch=1;curveFitting=1;jiggle=2;" parent="1" vertex="1">
                    <mxGeometry x="1860" y="279.5" width="200" height="80" as="geometry"/>
                </mxCell>
                <mxCell id="LoaX0u0-2imtYCJrDWAy-38" value="&lt;p style=&quot;line-height: 72%;&quot;&gt;&lt;font style=&quot;font-size: 12px;&quot; data-font-src=&quot;https://fonts.googleapis.com/css?family=Fredericka+the+Great&quot; face=&quot;Fredericka the Great&quot;&gt;** Successful response depends on outcome of request processing; all possible response not depicted as it will vary by endpoint.&lt;/font&gt;&lt;br&gt;&lt;/p&gt;" style="text;html=1;strokeColor=none;fillColor=none;align=left;verticalAlign=middle;whiteSpace=wrap;rounded=0;fontSize=20;fontFamily=Architects Daughter;sketch=1;curveFitting=1;jiggle=2;" parent="1" vertex="1">
                    <mxGeometry x="1900" y="794.5" width="270" height="50.5" as="geometry"/>
                </mxCell>
                <mxCell id="LoaX0u0-2imtYCJrDWAy-39" value="&lt;p style=&quot;line-height: 72%;&quot;&gt;&lt;font style=&quot;font-size: 12px;&quot; data-font-src=&quot;https://fonts.googleapis.com/css?family=Fredericka+the+Great&quot; face=&quot;Fredericka the Great&quot;&gt;* Represents any of the Hermes microservices.&lt;/font&gt;&lt;br&gt;&lt;/p&gt;" style="text;html=1;strokeColor=none;fillColor=none;align=left;verticalAlign=middle;whiteSpace=wrap;rounded=0;fontSize=20;fontFamily=Architects Daughter;sketch=1;curveFitting=1;jiggle=2;" parent="1" vertex="1">
                    <mxGeometry x="1900" y="754.5" width="270" height="40" as="geometry"/>
                </mxCell>
                <mxCell id="LoaX0u0-2imtYCJrDWAy-40" value="" style="edgeStyle=orthogonalEdgeStyle;rounded=0;orthogonalLoop=1;jettySize=auto;html=1;sketch=1;curveFitting=1;jiggle=2;" parent="1" source="LoaX0u0-2imtYCJrDWAy-41" target="LoaX0u0-2imtYCJrDWAy-3" edge="1">
                    <mxGeometry relative="1" as="geometry"/>
                </mxCell>
                <mxCell id="LoaX0u0-2imtYCJrDWAy-41" value="" style="outlineConnect=0;dashed=0;verticalLabelPosition=bottom;verticalAlign=top;align=center;html=1;shape=mxgraph.aws3.classic_load_balancer;fillColor=#f0a30a;strokeColor=#BD7000;fontColor=#000000;sketch=1;curveFitting=1;jiggle=2;" parent="1" vertex="1">
                    <mxGeometry x="320" y="289" width="57.97" height="60.5" as="geometry"/>
                </mxCell>
                <mxCell id="LoaX0u0-2imtYCJrDWAy-42" value="" style="edgeStyle=orthogonalEdgeStyle;rounded=0;orthogonalLoop=1;jettySize=auto;html=1;sketch=1;curveFitting=1;jiggle=2;" parent="1" source="LoaX0u0-2imtYCJrDWAy-7" target="LoaX0u0-2imtYCJrDWAy-41" edge="1">
                    <mxGeometry relative="1" as="geometry"/>
                </mxCell>
                <mxCell id="LoaX0u0-2imtYCJrDWAy-43" value="&lt;font data-font-src=&quot;https://fonts.googleapis.com/css?family=Fredericka+the+Great&quot; face=&quot;Fredericka the Great&quot;&gt;1) Client makes a request&lt;/font&gt;" style="edgeLabel;html=1;align=center;verticalAlign=middle;resizable=0;points=[];sketch=1;curveFitting=1;jiggle=2;" parent="LoaX0u0-2imtYCJrDWAy-42" vertex="1" connectable="0">
                    <mxGeometry x="-0.2298" y="-3" relative="1" as="geometry">
                        <mxPoint x="18" y="-3" as="offset"/>
                    </mxGeometry>
                </mxCell>
                <mxCell id="LoaX0u0-2imtYCJrDWAy-44" value="&lt;font data-font-src=&quot;https://fonts.googleapis.com/css?family=Fredericka+the+Great&quot; face=&quot;Fredericka the Great&quot;&gt;Load Balancer&lt;/font&gt;" style="text;html=1;strokeColor=none;fillColor=none;align=center;verticalAlign=middle;whiteSpace=wrap;rounded=0;sketch=1;curveFitting=1;jiggle=2;" parent="1" vertex="1">
                    <mxGeometry x="318.99" y="359.5" width="60" height="30" as="geometry"/>
                </mxCell>
            </root>
        </mxGraphModel>
    </diagram>
</mxfile>